<?xml version="1.0" encoding="UTF-8"?>
<svg xmlns="http://www.w3.org/2000/svg" width="512" height="512" viewBox="0 0 512 512" role="img" aria-labelledby="title desc">
  <title>Matrimony Heart-M Logo</title>
  <desc>Premium single-color heart logo with an M-shaped negative space, optimized for favicon usage.</desc>
  <!-- Background is transparent for favicon flexibility -->
  <!-- Outer heart -->
  <path fill="#F2526E" fill-rule="evenodd" d="
    M256 472
    c-11.8-10.7-23.3-20.8-34.4-30.4
    C159.2 377.6 108 332.3 76.5 293.3
    C46.8 256.1 32 224.8 32 190.2
    C32 132.5 78.0 88 133.3 88
    c37.6 0 71.0 20.1 90.6 51.0
    c3.8 6.0 7.1 12.1 9.7 18.2
    c2.6-6.1 5.9-12.2 9.7-18.2
    C262.9 108.1 296.3 88 333.9 88
    C389.2 88 435.2 132.5 435.2 190.2
    c0 34.6-14.8 65.9-44.5 103.1
    C358.2 332.3 307 377.6 290.4 441.6
    C279.3 451.2 267.8 461.3 256 472
    Z
    M256 420
    c3.7-3.4 7.3-6.7 10.8-9.9
    c13.9-12.6 26.9-24.3 39.2-35.3
    c46.2-41.2 84.6-75.4 109.7-106.3
    c26.0-32.1 36.6-57.7 36.6-78.4
    c0-42.2-35.2-76.5-78.4-76.5
    c-28.9 0-54.6 15.8-68.5 41.1
    c-6.7 12.1-10.4 25.1-11.0 38.6
    a8 8 0 0 1-7.9 7.6h-8.5
    a8 8 0 0 1-7.9-7.6
    c-0.6-13.5-4.3-26.5-11.0-38.6
    C244.5 114.6 218.8 98.8 189.9 98.8
    c-43.2 0-78.4 34.3-78.4 76.5
    c0 20.8 10.6 46.3 36.6 78.4
    c25.1 30.9 63.6 65.1 109.7 106.3
    c12.3 11.0 25.3 22.7 39.2 35.3
    c3.5 3.2 7.1 6.5 10.8 9.9
    Z
    " />
  <!-- M-shaped negative space (cut out) -->
  <path fill="#FFFFFF" fill-rule="evenodd" d="
    M170 206
      c0-34 25.5-61.5 57-61.5
      c20.1 0 37.1 9.6 47.9 25.1
      c10.8-15.5 27.8-25.1 47.9-25.1
      c31.5 0 57 27.5 57 61.5
      v94
      c0 7.7-5.9 14-13.1 14
      c-5.3 0-9.8-3.2-12-7.9
      l-0.2-0.5l-38.5-84.2l-38.5 84.2
      c-2.3 4.7-6.7 7.9-12 7.9
      s-9.8-3.2-12-7.9l-38.5-84.2l-38.5 84.2
      l-0.2 0.5c-2.2 4.7-6.7 7.9-12 7.9
      c-7.2 0-13.1-6.3-13.1-14
      Z" />
</svg>
